<?xml version="1.0" encoding="UTF-8"?>
<svg id="Calque_1" xmlns="http://www.w3.org/2000/svg" width="299.9" height="160.8" xmlns:xlink="http://www.w3.org/1999/xlink" version="1.1" viewBox="0 0 499.9 360.8">
  <!-- Generator: Adobe Illustrator 29.1.0, SVG Export Plug-In . SVG Version: 2.1.0 Build 142)  -->
  <defs>
    <style>
      .st0 {
        fill: none;
      }

      .st1 {
        fill: #59d19a;
      }

      .st2 {
        fill: #3245f8;
      }

      .st3 {
        fill: #1a1d21;
      }

      .st4, .st5, .st6, .st7, .st8, .st9, .st10, .st11, .st12, .st13, .st14, .st15, .st16, .st17, .st18, .st19, .st20, .st21, .st22, .st23, .st24, .st25, .st26, .st27, .st28, .st29, .st30, .st31, .st32, .st33 {
        isolation: isolate;
      }

      .st4, .st6, .st7, .st8, .st9, .st10, .st11, .st12, .st13, .st14, .st15, .st16, .st17, .st18, .st19, .st20, .st21, .st22, .st23, .st24, .st25, .st26, .st27, .st28, .st29, .st30, .st31, .st32, .st33 {
        opacity: 0;
      }

      .st5 {
        opacity: 0;
      }

      .st34 {
        font-size: 30.3px;
      }

      .st34, .st35, .st36, .st37, .st38, .st39, .st40, .st41, .st42, .st43, .st44, .st45, .st46, .st47, .st48, .st49, .st50, .st51 {
        fill: #fff;
      }

      .st34, .st35, .st41, .st43, .st44, .st50, .st51 {
        font-weight: 700;
      }

      .st34, .st35, .st41, .st43, .st44, .st51 {
        font-family: Poppins-Bold, 'Poppins Bold';
      }

      .st52, .st53, .st38, .st39, .st45, .st49, .st54 {
        stroke-miterlimit: 10;
      }

      .st52, .st53, .st39, .st49 {
        stroke-width: 17px;
      }

      .st52, .st53, .st55, .st56, .st57, .st58 {
        fill: #06f47c;
      }

      .st52, .st45, .st49, .st54 {
        stroke: #fff;
      }

      .st35 {
        font-size: 67.3px;
      }

      .st53, .st39 {
        stroke: #1b1b1e;
      }

      .st36 {
        font-family: CheGuevaraONKA-Regular, 'CheGuevara ONKA';
      }

      .st36, .st48 {
        font-size: 39.8px;
      }

      .st59 {
        font-size: 96.4px;
      }

      .st59, .st60, .st55, .st56, .st48 {
        font-family: AntiqueOliNorD-Regu, 'AntiqueOliNorD Regu';
      }

      .st59, .st60, .st61 {
        fill: #252528;
      }

      .st60 {
        font-size: 78px;
      }

      .st62 {
        fill: #21a366;
      }

      .st63 {
        fill: #61e3a7;
      }

      .st37 {
        opacity: .4;
      }

      .st38 {
        stroke: #1d1d1b;
      }

      .st40 {
        font-family: TTFirsNeueTrl-Black, 'TT Firs Neue Trl';
        font-size: 30.2px;
        font-weight: 800;
      }

      .st55 {
        font-size: 162.7px;
      }

      .st41 {
        font-size: 108.1px;
      }

      .st64 {
        fill: #33c481;
      }

      .st65 {
        clip-path: url(#clippath-1);
      }

      .st66 {
        font-size: 17.7px;
      }

      .st67 {
        font-size: 22.2px;
      }

      .st68 {
        font-size: 24.4px;
      }

      .st69 {
        font-size: 30.6px;
      }

      .st43 {
        font-size: 47.5px;
      }

      .st44 {
        font-size: 47.3px;
      }

      .st56 {
        font-size: 119.6px;
      }

      .st45 {
        opacity: .1;
        stroke-width: 5px;
      }

      .st70 {
        fill: #383838;
      }

      .st6 {
        fill: url(#Dégradé_sans_nom_21);
      }

      .st7 {
        fill: url(#Dégradé_sans_nom_27);
      }

      .st8 {
        fill: url(#Dégradé_sans_nom_24);
      }

      .st9 {
        fill: url(#Dégradé_sans_nom_22);
      }

      .st10 {
        fill: url(#Dégradé_sans_nom_25);
      }

      .st11 {
        fill: url(#Dégradé_sans_nom_26);
      }

      .st12 {
        fill: url(#Dégradé_sans_nom_23);
      }

      .st13 {
        fill: url(#Dégradé_sans_nom_28);
      }

      .st14 {
        fill: url(#Dégradé_sans_nom_29);
      }

      .st46 {
        filter: url(#outer-glow-1);
      }

      .st47 {
        filter: url(#outer-glow-2);
      }

      .st71 {
        fill: #107c42;
      }

      .st15 {
        fill: url(#Dégradé_sans_nom_210);
      }

      .st16 {
        fill: url(#Dégradé_sans_nom_213);
      }

      .st17 {
        fill: url(#Dégradé_sans_nom_215);
      }

      .st18 {
        fill: url(#Dégradé_sans_nom_218);
      }

      .st19 {
        fill: url(#Dégradé_sans_nom_214);
      }

      .st20 {
        fill: url(#Dégradé_sans_nom_212);
      }

      .st21 {
        fill: url(#Dégradé_sans_nom_219);
      }

      .st22 {
        fill: url(#Dégradé_sans_nom_211);
      }

      .st23 {
        fill: url(#Dégradé_sans_nom_225);
      }

      .st24 {
        fill: url(#Dégradé_sans_nom_221);
      }

      .st25 {
        fill: url(#Dégradé_sans_nom_216);
      }

      .st26 {
        fill: url(#Dégradé_sans_nom_217);
      }

      .st27 {
        fill: url(#Dégradé_sans_nom_226);
      }

      .st28 {
        fill: url(#Dégradé_sans_nom_224);
      }

      .st29 {
        fill: url(#Dégradé_sans_nom_227);
      }

      .st30 {
        fill: url(#Dégradé_sans_nom_222);
      }

      .st31 {
        fill: url(#Dégradé_sans_nom_220);
      }

      .st32 {
        fill: url(#Dégradé_sans_nom_223);
      }

      .st54 {
        stroke-width: 12px;
      }

      .st54, .st72 {
        fill: #1b1b1e;
      }

      .st73 {
        fill: #0c0c0d;
      }

      .st33 {
        fill: url(#Dégradé_sans_nom_2);
      }

      .st50 {
        font-family: Poppins-ExtraBold, Poppins;
        font-size: 25.4px;
      }

      .st58 {
        font-family: BlairITC-Medium, 'Blair ITC';
        font-size: 23.7px;
        font-weight: 500;
      }

      .st74 {
        clip-path: url(#clippath);
      }

      .st75 {
        fill: #52bf8d;
      }

      .st76 {
        fill: #022d17;
      }

      .st77 {
        fill: #151719;
      }
    </style>
    <filter id="outer-glow-1" x="-864.2" y="833.6" width="495.8" height="535" filterUnits="userSpaceOnUse">
      <feOffset dx="0" dy="0"/>
      <feGaussianBlur result="blur" stdDeviation="29"/>
      <feFlood flood-color="#fff" flood-opacity=".5"/>
      <feComposite in2="blur" operator="in"/>
      <feComposite in="SourceGraphic"/>
    </filter>
    <filter id="outer-glow-2" x="-595.6" y="833.6" width="405.6" height="491.3" filterUnits="userSpaceOnUse">
      <feOffset dx="0" dy="0"/>
      <feGaussianBlur result="blur1" stdDeviation="29"/>
      <feFlood flood-color="#fff" flood-opacity=".5"/>
      <feComposite in2="blur1" operator="in"/>
      <feComposite in="SourceGraphic"/>
    </filter>
    <linearGradient id="Dégradé_sans_nom_2" data-name="Dégradé sans nom 2" x1="-3294.9" y1="-2225.8" x2="-3294.9" y2="-2441.4" gradientTransform="translate(3017.2 -1639.9) scale(2.1)" gradientUnits="userSpaceOnUse">
      <stop offset="0" stop-color="#000"/>
      <stop offset=".2" stop-color="#040405"/>
      <stop offset=".4" stop-color="#111212"/>
      <stop offset=".6" stop-color="#262828"/>
      <stop offset=".8" stop-color="#444647"/>
      <stop offset="1" stop-color="#5e6162"/>
    </linearGradient>
    <linearGradient id="Dégradé_sans_nom_21" data-name="Dégradé sans nom 2" x1="-3413.9" x2="-3413.9" xlink:href="#Dégradé_sans_nom_2"/>
    <linearGradient id="Dégradé_sans_nom_22" data-name="Dégradé sans nom 2" x1="-3712.2" x2="-3712.2" xlink:href="#Dégradé_sans_nom_2"/>
    <linearGradient id="Dégradé_sans_nom_23" data-name="Dégradé sans nom 2" x1="-3369" x2="-3369" xlink:href="#Dégradé_sans_nom_2"/>
    <linearGradient id="Dégradé_sans_nom_24" data-name="Dégradé sans nom 2" x1="-3346.3" x2="-3346.3" xlink:href="#Dégradé_sans_nom_2"/>
    <linearGradient id="Dégradé_sans_nom_25" data-name="Dégradé sans nom 2" x1="-3558.6" x2="-3558.6" xlink:href="#Dégradé_sans_nom_2"/>
    <linearGradient id="Dégradé_sans_nom_26" data-name="Dégradé sans nom 2" x1="-3388.5" x2="-3388.5" xlink:href="#Dégradé_sans_nom_2"/>
    <linearGradient id="Dégradé_sans_nom_27" data-name="Dégradé sans nom 2" x1="-3266" x2="-3266" xlink:href="#Dégradé_sans_nom_2"/>
    <linearGradient id="Dégradé_sans_nom_28" data-name="Dégradé sans nom 2" x1="-3271.8" y1="-2302.1" x2="-3271.8" y2="-2573.4" xlink:href="#Dégradé_sans_nom_2"/>
    <linearGradient id="Dégradé_sans_nom_29" data-name="Dégradé sans nom 2" x1="-3725.9" x2="-3725.9" xlink:href="#Dégradé_sans_nom_2"/>
    <linearGradient id="Dégradé_sans_nom_210" data-name="Dégradé sans nom 2" x1="-3725.9" y1="-2302.1" x2="-3725.9" y2="-2573.4" xlink:href="#Dégradé_sans_nom_2"/>
    <linearGradient id="Dégradé_sans_nom_211" data-name="Dégradé sans nom 2" x1="-3726" y1="-2302.1" x2="-3726" y2="-2573.4" xlink:href="#Dégradé_sans_nom_2"/>
    <linearGradient id="Dégradé_sans_nom_212" data-name="Dégradé sans nom 2" x1="-3271.8" y1="-2302.1" x2="-3271.8" y2="-2573.4" xlink:href="#Dégradé_sans_nom_2"/>
    <linearGradient id="Dégradé_sans_nom_213" data-name="Dégradé sans nom 2" x1="-3271.8" y1="-2302.1" x2="-3271.8" y2="-2573.4" xlink:href="#Dégradé_sans_nom_2"/>
    <linearGradient id="Dégradé_sans_nom_214" data-name="Dégradé sans nom 2" x1="-3271.8" y1="-2302.1" x2="-3271.8" y2="-2573.4" gradientTransform="translate(-6146.3 1489.2) rotate(70) scale(2.1)" xlink:href="#Dégradé_sans_nom_2"/>
    <linearGradient id="Dégradé_sans_nom_215" data-name="Dégradé sans nom 2" x1="-3271.8" y1="-2302.1" x2="-3271.8" y2="-2573.4" xlink:href="#Dégradé_sans_nom_2"/>
    <linearGradient id="Dégradé_sans_nom_216" data-name="Dégradé sans nom 2" x1="-3291.3" y1="-2302.1" x2="-3291.3" y2="-2573.4" xlink:href="#Dégradé_sans_nom_2"/>
    <linearGradient id="Dégradé_sans_nom_217" data-name="Dégradé sans nom 2" x1="-3705.8" y1="-2302.1" x2="-3705.8" y2="-2573.4" xlink:href="#Dégradé_sans_nom_2"/>
    <linearGradient id="Dégradé_sans_nom_218" data-name="Dégradé sans nom 2" x1="-3684.2" y1="-2302.1" x2="-3684.2" y2="-2573.4" xlink:href="#Dégradé_sans_nom_2"/>
    <linearGradient id="Dégradé_sans_nom_219" data-name="Dégradé sans nom 2" x1="-3320.7" y1="-2302.1" x2="-3320.7" y2="-2573.4" xlink:href="#Dégradé_sans_nom_2"/>
    <linearGradient id="Dégradé_sans_nom_220" data-name="Dégradé sans nom 2" x1="-3360.5" y1="-2302.1" x2="-3360.5" y2="-2573.4" xlink:href="#Dégradé_sans_nom_2"/>
    <linearGradient id="Dégradé_sans_nom_221" data-name="Dégradé sans nom 2" x1="-3406.3" y1="-2302.1" x2="-3406.3" y2="-2573.4" xlink:href="#Dégradé_sans_nom_2"/>
    <linearGradient id="Dégradé_sans_nom_222" data-name="Dégradé sans nom 2" x1="-3528.7" y1="-2302.1" x2="-3528.7" y2="-2573.4" xlink:href="#Dégradé_sans_nom_2"/>
    <linearGradient id="Dégradé_sans_nom_223" data-name="Dégradé sans nom 2" x1="-3683.4" y1="-2302.1" x2="-3683.4" y2="-2573.4" xlink:href="#Dégradé_sans_nom_2"/>
    <linearGradient id="Dégradé_sans_nom_224" data-name="Dégradé sans nom 2" x1="-3381.3" y1="-2302.1" x2="-3381.3" y2="-2573.4" xlink:href="#Dégradé_sans_nom_2"/>
    <linearGradient id="Dégradé_sans_nom_225" data-name="Dégradé sans nom 2" x1="-3338.2" y1="-2302.1" x2="-3338.2" y2="-2573.4" xlink:href="#Dégradé_sans_nom_2"/>
    <linearGradient id="Dégradé_sans_nom_226" data-name="Dégradé sans nom 2" x1="-3636.1" y1="-2302.1" x2="-3636.1" y2="-2573.4" xlink:href="#Dégradé_sans_nom_2"/>
    <linearGradient id="Dégradé_sans_nom_227" data-name="Dégradé sans nom 2" x1="-3446.3" y1="-2302.1" x2="-3446.3" y2="-2573.4" xlink:href="#Dégradé_sans_nom_2"/>
    <clipPath id="clippath">
      <rect class="st0" x="854.9" y="2308" width="153.3" height="153.3" rx="8" ry="8"/>
    </clipPath>
    <clipPath id="clippath-1">
      <rect class="st0" x="759.3" y="1592" width="581.9" height="153.3" rx="8" ry="8"/>
    </clipPath>
    <image id="image" width="1920" height="1080" xlink:href="../Vexa design.png"/>
  </defs>
  <rect class="st2" x="-927" y="672.7" width="800" height="800"/>
  <rect class="st73" x="127.6" y="-1104.5" width="800" height="800"/>
  <rect class="st73" x="-840.8" y="-1102.8" width="800" height="800"/>
  <path class="st38" d="M750.9-997.5"/>
  <path class="st38" d="M591.6-841.7"/>
  <path class="st76" d="M458.6-654c-32.4-108.3-64.7-232.5-67.9-253.1h-77.8c3.7,24.7,72,236.6,109.5,353.1,6.2-19.2,29.7-78.6,36.1-100Z"/>
  <path class="st57" d="M343.3-907h-147.4c0,27.4,2.1,54.7,6.3,81.8,18.3,117.4,69.5,337.8,137.9,337.8h48.1c8.9-8.9,24.5-50.8,42-105.1-37.5-116.5-83.1-289.8-86.9-314.5Z"/>
  <path class="st76" d="M662.7-907c3.1,20.6,35.5,144.8,67.9,253.1,6.4,21.4,12.8,42.2,19,61.4,17.5,54.3,33.1,96.2,42,105.1h-132.1c-68.3,0-119.6-220.4-137.9-337.8-4.2-27.1-6.3-54.4-6.3-81.8h147.4Z"/>
  <path class="st76" d="M378.9-1180.6c-3.1-20.6-35.5-144.8-67.9-253.1-6.4-21.4-12.8-42.2-19-61.4-17.5-54.3-33.1-96.2-42-105.1h132.1c68.3,0,119.6,220.4,137.9,337.8,4.2,27.1,6.3,54.4,6.3,81.8h-147.4Z"/>
  <path class="st57" d="M303.7-1180.6c-3.1-20.6-35.5-144.8-67.9-253.1-6.4-21.4-12.8-42.2-19-61.4-17.5-54.3-33.1-96.2-42-105.1h132.1c68.3,0,119.6,220.4,137.9,337.8,4.2,27.1,6.3,54.4,6.3,81.8h-147.4Z"/>
  <path class="st76" d="M36.3-1600.1c3.1,20.6,35.5,144.8,67.9,253.1,6.4,21.4,12.8,42.2,19,61.4,17.5,54.3,33.1,96.2,42,105.1H33c-68.3,0-119.6-220.4-137.9-337.8-4.2-27.1-6.3-54.4-6.3-81.8H36.3Z"/>
  <path class="st57" d="M111.4-1600.1c3.1,20.6,35.5,144.8,67.9,253.1,6.4,21.4,12.8,42.2,19,61.4,17.5,54.3,33.1,96.2,42,105.1H108.2c-68.3,0-119.6-220.4-137.9-337.8-4.2-27.1-6.3-54.4-6.3-81.8H111.4Z"/>
  <path class="st57" d="M517-907c-3.1,20.6-35.5,144.8-67.9,253.1-6.4,21.4-12.8,42.2-19,61.4-17.5,54.3-33.1,96.2-42,105.1h132.1c68.3,0,119.6-220.4,137.9-337.8,4.2-27.1,6.3-54.4,6.3-81.8h-147.4Z"/>
  <rect class="st72" x="-2699.3" y="-226.1" width="800" height="800"/>
  <path class="st38" d="M-2261-710.2l-240.9-317.9-43.7,33.1c-51.8,39.3-62,113.1-22.7,164.9l199.1,262.8,108.2-142.9Z"/>
  <path class="st38" d="M-2076.1-997.5"/>
  <path class="st38" d="M-2235.4-841.7"/>
  <rect class="st73" x="-2699.3" y="-1102.8" width="800" height="800"/>
  <path class="st57" d="M-2221.7-655.4l-245.1-319.9-103.6,79.4c-45.4,34.8-54.1,99.9-19.2,145.3l254.6,332.2,113.4-86.9v-150.1Z"/>
  <path class="st57" d="M-2131-950.4h6.5v470h-150.6v-325.9c0-79.6,64.6-144.1,144.1-144.1Z"/>
  <path class="st57" d="M853.5-505.3"/>
  <path class="st38" d="M-217.6-997.5"/>
  <path class="st38" d="M-376.9-841.7"/>
  <g>
    <path class="st76" d="M-421.8-659.5c-32.4-108.3-64.7-232.5-67.9-253.1h-38c3.7,24.7,49.4,198,86.9,314.5,6.2-19.2,12.6-40,19-61.4Z"/>
    <path class="st57" d="M-527.6-912.6h-147.4c0,27.4,2.1,54.7,6.3,81.8,18.3,117.4,69.5,337.8,137.9,337.8h48.1c8.9-8.9,24.5-50.8,42-105.1-37.5-116.5-83.1-289.8-86.9-314.5Z"/>
    <path class="st57" d="M-353.9-912.6c-3.1,20.6-35.5,144.8-67.9,253.1-6.4,21.4-12.8,42.2-19,61.4-17.5,54.3-33.1,96.2-42,105.1h132.1c68.3,0,119.6-220.4,137.9-337.8,4.2-27.1,6.3-54.4,6.3-81.8h-147.4Z"/>
  </g>
  <path class="st57" d="M-115-505.3"/>
  <path class="st38" d="M-1337.7-710.2l-240.9-317.9-43.7,33.1c-51.8,39.3-62,113.1-22.7,164.9l199.1,262.8,108.2-142.9Z"/>
  <path class="st38" d="M-1152.8-997.5"/>
  <path class="st38" d="M-1312.1-841.7"/>
  <rect class="st73" x="-1776" y="-1102.8" width="800" height="800"/>
  <path class="st57" d="M-1494.1-1017.5h33.5V-463.2h-177.7v-410.2c0-79.6,64.6-144.1,144.1-144.1Z"/>
  <path class="st57" d="M-1256-956.8h0v504.8h-177.7v-327.1c0-98.1,79.6-177.7,177.7-177.7Z" transform="translate(-892 744.6) rotate(45)"/>
  <path class="st57" d="M-1050.2-505.3"/>
  <path class="st46" d="M-455.4,1281.6h-129.6l-192-360.8h90.2c32.4,0,62,18.4,76.3,47.4l155.1,313.4Z"/>
  <path class="st47" d="M-433.8,1237.7l156.7-317h-91.9c-31.5,0-60.4,17.4-75.2,45.1l-64.3,120.7,74.7,151.1Z"/>
  <path class="st57" d="M-477.5,382.7h-129.6L-799.1,21.9h90.2c32.4,0,62,18.4,76.3,47.4l155.1,313.4Z"/>
  <path class="st57" d="M-455.9,338.9L-299.3,21.9h-91.9c-31.5,0-60.4,17.4-75.2,45.1l-64.3,120.7,74.7,151.1Z"/>
  <path class="st42" d="M321.6,360.8h-129.6L0,0h90.2c32.4,0,62,18.4,76.3,47.4l155.1,313.4Z"/>
  <path class="st42" d="M343.2,317L499.9,0h-91.9c-31.5,0-60.4,17.4-75.2,45.1l-64.3,120.7,74.7,151.1Z"/>
  <rect class="st72" x="-1851.2" y="-226.1" width="800" height="800"/>
  <path class="st57" d="M-1379.5,382.7h-129.6L-1701.1,21.9h90.2c32.4,0,62,18.4,76.3,47.4l155.1,313.4Z"/>
  <path class="st57" d="M-1357.9,338.9L-1201.2,21.9h-91.9c-31.5,0-60.4,17.4-75.2,45.1l-64.3,120.7,74.7,151.1Z"/>
  <polygon class="st57" points="-2209.6 418.6 -2371.8 418.6 -2612.2 -33.1 -2433.1 -33.1 -2209.6 418.6"/>
  <polygon class="st57" points="-2182.6 363.7 -1986.5 -33.1 -2165.6 -33.1 -2276.1 174.6 -2182.6 363.7"/>
  <rect class="st3" x="-2837.2" y="-3137.8" width="2001.1" height="1229.5" rx="-339.3" ry="-339.3"/>
  <rect class="st3" x="-2281.4" y="-7201.4" width="2001.1" height="1229.5" rx="-2371.2" ry="-2371.2"/>
  <rect class="st70" x="-2627.5" y="-2691.1" width="472.1" height="168.4" rx="-1177.2" ry="-1177.2"/>
  <rect class="st70" x="-1970.6" y="-3071.8" width="1055.9" height="444.7" rx="-1091.2" ry="-1091.2"/>
  <rect class="st77" x="-2838.1" y="-3135" width="231.3" height="1226.8" rx="-1187.8" ry="-1187.8"/>
  <circle class="st70" cx="-2777.7" cy="-3077.9" r="17.5"/>
  <circle class="st70" cx="-2728.8" cy="-3077.9" r="17.5"/>
  <circle class="st70" cx="-2680.3" cy="-3077.9" r="17.5"/>
  <circle class="st57" cx="-2498.1" cy="-2769.1" r="56"/>
  <rect class="st57" x="-2796.4" y="-3016.6" width="137.4" height="137.4" rx="-1370.9" ry="-1370.9"/>
  <rect class="st70" x="-2796.4" y="-2838.9" width="137.4" height="137.4" rx="-1282.1" ry="-1282.1"/>
  <rect class="st70" x="-2798.5" y="-2661.3" width="137.4" height="137.4" rx="-1261.9" ry="-1261.9"/>
  <rect class="st70" x="-2796.4" y="-2483.7" width="137.4" height="137.4" rx="-1260.8" ry="-1260.8"/>
  <circle class="st57" cx="-2499.8" cy="-2605.2" r="56"/>
  <circle class="st57" cx="-2057.1" cy="-3027.7" r="56"/>
  <rect class="st70" x="-1970.6" y="-2583.2" width="1055.9" height="420.7" rx="-870.9" ry="-870.9"/>
  <rect class="st70" x="-2100.1" y="-2103.3" width="1185.4" height="125.7" rx="-926" ry="-926"/>
  <circle class="st57" cx="-2057.1" cy="-2539.1" r="56"/>
  <rect class="st3" x="-2411.4" y="-2623.9" width="224.8" height="35.1" rx="-1276.9" ry="-1276.9"/>
  <rect class="st3" x="-2606.8" y="-3135" width="1712.9" height="110.6"/>
  <circle class="st57" cx="-2499.8" cy="-2443.6" r="56"/>
  <rect class="st70" x="-2411.4" y="-2462.3" width="224.8" height="35.1" rx="-1196.1" ry="-1196.1"/>
  <rect class="st70" x="-2557.3" y="-3095.4" width="372.4" height="35.1" rx="-1512.6" ry="-1512.6"/>
  <rect class="st70" x="-2409.8" y="-2787.8" width="224.8" height="35.1" rx="-1358.8" ry="-1358.8"/>
  <circle class="st57" cx="-2499.8" cy="-2293.7" r="56"/>
  <rect class="st70" x="-2411.4" y="-2312.4" width="224.8" height="35.1" rx="-1121.1" ry="-1121.1"/>
  <circle class="st57" cx="-2499.8" cy="-2143.8" r="56"/>
  <rect class="st70" x="-2411.4" y="-2162.6" width="224.8" height="35.1" rx="-1046.2" ry="-1046.2"/>
  <circle class="st57" cx="-2499.8" cy="-1994" r="56"/>
  <rect class="st70" x="-2411.4" y="-2012.7" width="224.8" height="35.1" rx="-980.9" ry="-980.9"/>
  <rect class="st70" x="-2557.3" y="-3024.4" width="372.4" height="60.1" rx="-1452.1" ry="-1452.1"/>
  <rect class="st70" x="-2557.3" y="-2947.8" width="372.4" height="60.1" rx="-1413.8" ry="-1413.8"/>
  <rect class="st3" x="-2837.2" y="-4546.4" width="2001.1" height="1229.5" rx="-1043.7" ry="-1043.7"/>
  <rect class="st70" x="-2627.5" y="-4099.7" width="472.1" height="168.4" rx="-1881.5" ry="-1881.5"/>
  <rect class="st70" x="-1970.6" y="-4480.4" width="1055.9" height="444.7" rx="-1795.6" ry="-1795.6"/>
  <rect class="st77" x="-2838.1" y="-4543.6" width="231.3" height="1226.8" rx="-1187.8" ry="-1187.8"/>
  <circle class="st70" cx="-2777.7" cy="-4486.5" r="17.5"/>
  <circle class="st70" cx="-2728.8" cy="-4486.5" r="17.5"/>
  <circle class="st70" cx="-2680.3" cy="-4486.5" r="17.5"/>
  <circle class="st57" cx="-2498.1" cy="-4177.7" r="56"/>
  <rect class="st57" x="-2796.4" y="-4425.2" width="137.4" height="137.4" rx="-2075.2" ry="-2075.2"/>
  <rect class="st70" x="-2796.4" y="-4247.6" width="137.4" height="137.4" rx="-1986.4" ry="-1986.4"/>
  <rect class="st70" x="-2798.5" y="-4069.9" width="137.4" height="137.4" rx="-1897.6" ry="-1897.6"/>
  <rect class="st70" x="-2796.4" y="-3892.3" width="137.4" height="137.4" rx="-1808.8" ry="-1808.8"/>
  <circle class="st57" cx="-2499.8" cy="-4013.8" r="56"/>
  <circle class="st57" cx="-2057.1" cy="-4436.3" r="56"/>
  <rect class="st70" x="-1970.6" y="-3991.9" width="1055.9" height="420.7" rx="-1575.3" ry="-1575.3"/>
  <rect class="st70" x="-2100.1" y="-3511.9" width="1185.4" height="125.7" rx="-1630.3" ry="-1630.3"/>
  <circle class="st57" cx="-2057.1" cy="-3947.7" r="56"/>
  <rect class="st3" x="-2411.4" y="-4032.5" width="224.8" height="35.1" rx="-1981.2" ry="-1981.2"/>
  <rect class="st3" x="-2606.8" y="-4543.6" width="1712.9" height="110.6"/>
  <circle class="st57" cx="-2499.8" cy="-3852.2" r="56"/>
  <rect class="st70" x="-2411.4" y="-3870.9" width="224.8" height="35.1" rx="-1900.4" ry="-1900.4"/>
  <rect class="st70" x="-2557.3" y="-4504.1" width="372.4" height="35.1" rx="-2217" ry="-2217"/>
  <rect class="st70" x="-2409.8" y="-4196.4" width="224.8" height="35.1" rx="-2063.1" ry="-2063.1"/>
  <circle class="st57" cx="-2499.8" cy="-3702.4" r="56"/>
  <rect class="st70" x="-2411.4" y="-3721.1" width="224.8" height="35.1" rx="-1825.5" ry="-1825.5"/>
  <circle class="st57" cx="-2499.8" cy="-3552.5" r="56"/>
  <rect class="st70" x="-2411.4" y="-3571.2" width="224.8" height="35.1" rx="-1750.5" ry="-1750.5"/>
  <circle class="st57" cx="-2499.8" cy="-3402.6" r="56"/>
  <rect class="st70" x="-2411.4" y="-3421.3" width="224.8" height="35.1" rx="-1675.6" ry="-1675.6"/>
  <rect class="st70" x="-2557.3" y="-4433" width="372.4" height="60.1" rx="-2156.4" ry="-2156.4"/>
  <rect class="st70" x="-2557.3" y="-4356.4" width="372.4" height="60.1" rx="-2118.1" ry="-2118.1"/>
  <path class="st75" d="M1013.7-4214.7l-751.4,560.2c-9.9,7.4-23.9,5.3-31.2-4.6L-7.7-3979.3c-8.1-10.9-5.9-26.3,5-34.4l749.6-558.9c9.9-7.4,23.9-5.3,31.2,4.6l240.1,322c7.4,9.9,5.3,23.8-4.6,31.2Z"/>
  <path class="st71" d="M67-4065.7l266.8,357.8,608.3-453.5-266.8-357.8-608.3,453.5ZM508.5-3921.6c-69.2,51.6-167,37.3-218.6-31.9-51.6-69.2-37.3-167,31.9-218.6,69.2-51.6,167-37.3,218.6,31.9,51.6,69.2,37.3,167-31.9,218.6ZM839.4-4168.4c-14.8,11-35.8,8-46.8-6.8-11-14.8-8-35.8,6.8-46.8s35.8-8,46.8,6.8c11,14.8,8,35.8-6.8,46.8ZM767.9-4115c-14.8,11-35.8,8-46.8-6.8s-8-35.8,6.8-46.8c14.8-11,35.8-8,46.8,6.8,11,14.8,8,35.8-6.8,46.8Z"/>
  <path class="st1" d="M1122.5-3896l-959.3,336.4c-12.6,4.4-26.4-2.2-30.8-14.8L-11.5-3984.8c-4.6-13,2.3-27.3,15.3-31.8l958.6-336.2c12.6-4.4,26.4,2.2,30.8,14.8l144.2,411.1c4.5,12.6-2.2,26.4-14.8,30.8Z"/>
  <path class="st62" d="M94.4-4048.4l160.2,456.8,776.6-272.3-160.2-456.8-776.6,272.3ZM504.7-3756.3c-88.3,31-185-15.5-216-103.8-31-88.3,15.5-185,103.8-216s185,15.5,216,103.8c31,88.3-15.5,185-103.8,216ZM927.2-3904.5c-18.9,6.6-39.6-3.3-46.3-22.3-6.6-18.9,3.3-39.6,22.3-46.3,18.9-6.6,39.6,3.3,46.3,22.3,6.6,18.9-3.3,39.6-22.3,46.3ZM835.9-3872.4c-18.9,6.6-39.6-3.3-46.3-22.3-6.6-18.9,3.3-39.6,22.3-46.3,18.9-6.6,39.6,3.3,46.3,22.3,6.6,18.9-3.3,39.6-22.3,46.3Z"/>
  <path class="st5" d="M1086.4-4044.4H38.4c-37.3,28.3-51.3,37.4-51.5,51.7v105.4h1151.9v-104.7c0-28.9-23.4-52.4-52.4-52.4Z"/>
  <path class="st4" d="M1099.5-4031.3H25.7c-25.9,14.2-38.8,24.6-38.8,38.9v92h1151.9v-91.6c0-21.7-17.6-39.3-39.3-39.3Z"/>
  <path class="st63" d="M1112.6-3494.6H13c-14.5,0-26.2-11.7-26.2-26.2v-471.2c0-14.5,11.7-26.2,26.2-26.2h1099.5c14.5,0,26.2,11.7,26.2,26.2v471.2c0,14.5-11.7,26.2-26.2,26.2Z"/>
  <path class="st64" d="M117.8-4018.2v523.6h890.1v-523.6H117.8ZM431.9-3573.1c-101.2,0-183.3-82-183.3-183.3s82-183.3,183.3-183.3,183.3,82,183.3,183.3-82,183.3-183.3,183.3ZM916.2-3573.1c-21.7,0-39.3-17.6-39.3-39.3s17.6-39.3,39.3-39.3,39.3,17.6,39.3,39.3-17.6,39.3-39.3,39.3ZM811.5-3573.1c-21.7,0-39.3-17.6-39.3-39.3s17.6-39.3,39.3-39.3,39.3,17.6,39.3,39.3-17.6,39.3-39.3,39.3Z"/>
  <path class="st63" d="M1428.7-2352.8H329.1c-14.5,0-26.2-15.2-26.2-33.8v-608.9c0-18.7,11.7-33.8,26.2-33.8h1099.5c14.5,0,26.2,15.2,26.2,33.8v608.9c0,18.7-11.7,33.8-26.2,33.8Z"/>
  <path class="st3" d="M433.8-3029.4v676.6h890.1v-676.6H433.8ZM747.9-2504.8c-101.2,0-183.3-83.4-183.3-186.3s82-186.3,183.3-186.3,183.3,83.4,183.3,186.3-82,186.3-183.3,186.3ZM1232.3-2454.3c-21.7,0-39.3-18.3-39.3-40.9s17.6-40.9,39.3-40.9,39.3,18.3,39.3,40.9-17.6,40.9-39.3,40.9ZM1127.6-2454.3c-21.7,0-39.3-18.3-39.3-40.9s17.6-40.9,39.3-40.9,39.3,18.3,39.3,40.9-17.6,40.9-39.3,40.9Z"/>
  <rect class="st3" x="-5243.7" y="-7201.4" width="2001.1" height="1229.5" rx="-2371.2" ry="-2371.2"/>
  <g>
    <path class="st63" d="M-4631.8-6406l-127.2-46.3c-9.9-3.6-16-13-16-22.9,0-.1,0-.3,0-.4-.2,10.1,5.9,19.7,16,23.3l438.3,159.5-311.1-113.2h0Z"/>
    <path class="st63" d="M-4016.4-6259.4c18.9,6.9,39.7-2.9,46.6-21.8.9-2.6,1.5-5.2,1.9-7.8l-71.6-12.6c-4,17.6,5.7,35.8,23.1,42.1Z"/>
    <path class="st63" d="M-4107.5-6292.6c15.9,5.8,33.2-.2,42.4-13.5l-65.1-11.5c2.9,11.2,11.1,20.8,22.7,25Z"/>
    <path class="st63" d="M-3851.7-6268.4h0s-91-16.1-91-16.1l-41.6,114.2,91.1,33.2c12.6,4.6,26.5-1.9,31.1-14.5l45.2-124.1c-7.9,5.2-17,8.1-26.3,8.1s-5.7-.2-8.5-.7Z"/>
    <path class="st63" d="M-3727.3-6592.9l-16.9-6.2-42.2,239.4,73.6-202.2c4.6-12.6-1.9-26.5-14.5-31.1Z"/>
    <polygon class="st71" points="-3984.3 -6170.3 -3984.3 -6170.3 -4320.7 -6292.8 -3984.3 -6170.3"/>
    <path class="st71" d="M-3967.9-6288.9c-.3,2.6-1,5.2-1.9,7.8-6.9,18.9-27.8,28.6-46.6,21.8-17.4-6.3-27-24.5-23.1-42.1l-25.7-4.5c-9.2,13.3-26.5,19.3-42.4,13.5-11.7-4.2-19.8-13.8-22.7-25l-501.5-88.4,311.1,113.2,336.4,122.4,41.6-114.2-25.1-4.4Z"/>
    <path class="st5" d="M-3816.9-6275.8l30.5-83.7v-.2s-30.5,83.8-30.5,83.8c0,0,0,0,0,0Z"/>
    <rect class="st5" x="-3755.8" y="-6615.5" width="0" height="24.6" transform="translate(3404.9 -9139.7) rotate(-79.9)"/>
    <path class="st63" d="M-3968.4-6301.3l-66.3-11.7c-1.4,2.2-2.5,4.5-3.4,7-.5,1.5-1,3-1.3,4.5l71.6,12.6c.5-4.2.3-8.4-.5-12.4Z"/>
    <path class="st5" d="M-3968.4-6301.3l-66.3-11.7c-1.4,2.2-2.5,4.5-3.4,7-.5,1.5-1,3-1.3,4.5l71.6,12.6c.5-4.2.3-8.4-.5-12.4Z"/>
    <path class="st63" d="M-4664.8-6427.6l-92.2-24.7c-6.3-1.7-11.3-5.7-14.4-10.9-2.2-3.5-3.4-7.6-3.6-12,0,0,0,0,0,0,0,10,6.1,19.3,16,22.9l127.2,46.3h0s-36-13.1-36-13.1l3.1-8.4Z"/>
    <path class="st5" d="M-4664.8-6427.6l-92.2-24.7c-6.3-1.7-11.3-5.7-14.4-10.9-2.2-3.5-3.4-7.6-3.6-12,0,0,0,0,0,0,0,10,6.1,19.3,16,22.9l127.2,46.3h0s-36-13.1-36-13.1l3.1-8.4Z"/>
    <path class="st63" d="M-4059.9-6317.5l-71.4-12.6c-.4,4.2,0,8.5,1,12.5l65.1,11.5c1.7-2.5,3.2-5.3,4.3-8.2.4-1,.7-2.1,1-3.1Z"/>
    <path class="st5" d="M-4059.9-6317.5l-71.4-12.6c-.4,4.2,0,8.5,1,12.5l65.1,11.5c1.7-2.5,3.2-5.3,4.3-8.2.4-1,.7-2.1,1-3.1Z"/>
    <path class="st63" d="M-3767.3-6607.4h0s11.6,4.2,11.6,4.2l-40.2,228-22.2,81.3c-4.9,7.6-13.3,12.9-22.7,13.8-2.9.3-5.8.2-8.8-.3h0s-88.9-15.7-88.9-15.7l-4.2,11.6,91,16.1h0c2.8.5,5.7.8,8.5.8,9.3,0,18.3-2.9,26.3-8.1l30.5-83.8,42.2-239.4-23.1-8.4Z"/>
    <path class="st5" d="M-3767.3-6607.4h0s11.6,4.2,11.6,4.2l-40.2,228-22.2,81.3c-4.9,7.6-13.3,12.9-22.7,13.8-2.9.3-5.8.2-8.8-.3h0s-88.9-15.7-88.9-15.7l-4.2,11.6,91,16.1h0c2.8.5,5.7.8,8.5.8,9.3,0,18.3-2.9,26.3-8.1l30.5-83.8,42.2-239.4-23.1-8.4Z"/>
    <path class="st71" d="M-4131.3-6330.1l-496-87.5-37.4-10-3.1,8.4,36,13.1,501.5,88.4c-1.1-4-1.4-8.2-1-12.5Z"/>
    <path class="st5" d="M-4131.3-6330.1l-496-87.5-37.4-10-3.1,8.4,36,13.1,501.5,88.4c-1.1-4-1.4-8.2-1-12.5Z"/>
    <path class="st71" d="M-3967.9-6288.9l25.1,4.4,4.2-11.6-29.9-5.3c.9,4,1.1,8.2.5,12.4Z"/>
    <path class="st5" d="M-3967.9-6288.9l25.1,4.4,4.2-11.6-29.9-5.3c.9,4,1.1,8.2.5,12.4Z"/>
    <path class="st71" d="M-4034.7-6313l-25.2-4.4c-.3,1.1-.6,2.1-1,3.1-1.1,3-2.5,5.7-4.3,8.2l25.7,4.5c.3-1.5.8-3,1.3-4.5.9-2.5,2.1-4.8,3.4-7Z"/>
    <path class="st5" d="M-4034.7-6313l-25.2-4.4c-.3,1.1-.6,2.1-1,3.1-1.1,3-2.5,5.7-4.3,8.2l25.7,4.5c.3-1.5.8-3,1.3-4.5.9-2.5,2.1-4.8,3.4-7Z"/>
    <path class="st63" d="M-3780.8-6530.9l-12.3,69.8-26.3,149.2c-2.3,13.2-14.9,22-28.1,19.6l-86.8-15.3-4.2,11.6,88.9,15.7h0c3,.5,5.9.6,8.8.3,9.4-1,17.8-6.2,22.7-13.8l22.2-81.3,40.2-228-11.6-4.2-13.5,76.4h0Z"/>
    <path class="st5" d="M-3780.8-6530.9l-12.3,69.8-26.3,149.2c-2.3,13.2-14.9,22-28.1,19.6l-86.8-15.3-4.2,11.6,88.9,15.7h0c3,.5,5.9.6,8.8.3,9.4-1,17.8-6.2,22.7-13.8l22.2-81.3,40.2-228-11.6-4.2-13.5,76.4h0Z"/>
    <path class="st33" d="M-3780.8-6530.9l-12.3,69.8-26.3,149.2c-2.3,13.2-14.9,22-28.1,19.6l-86.8-15.3-4.2,11.6,88.9,15.7h0c3,.5,5.9.6,8.8.3,9.4-1,17.8-6.2,22.7-13.8l22.2-81.3,40.2-228-11.6-4.2-13.5,76.4h0Z"/>
    <path class="st63" d="M-4058.8-6329.6l-69.4-12.2c-.4.9-.8,1.7-1.1,2.6-1.1,3-1.8,6.1-2,9.1l71.4,12.6c1.1-4,1.4-8.1,1.1-12.1Z"/>
    <path class="st5" d="M-4058.8-6329.6l-69.4-12.2c-.4.9-.8,1.7-1.1,2.6-1.1,3-1.8,6.1-2,9.1l71.4,12.6c1.1-4,1.4-8.1,1.1-12.1Z"/>
    <path class="st6" d="M-4058.8-6329.6l-69.4-12.2c-.4.9-.8,1.7-1.1,2.6-1.1,3-1.8,6.1-2,9.1l71.4,12.6c1.1-4,1.4-8.1,1.1-12.1Z"/>
    <path class="st63" d="M-4743.3-6450.3c-.6,0-2.3-.3-3.5-.6l-4.3-.8c-8.6-.1-16-4.7-20.3-11.5,3.1,5.2,8.1,9.2,14.4,10.9l92.2,24.7,3-8.3-81.6-14.4Z"/>
    <path class="st5" d="M-4743.3-6450.3c-.6,0-2.3-.3-3.5-.6l-4.3-.8c-8.6-.1-16-4.7-20.3-11.5,3.1,5.2,8.1,9.2,14.4,10.9l92.2,24.7,3-8.3-81.6-14.4Z"/>
    <path class="st9" d="M-4743.3-6450.3c-.6,0-2.3-.3-3.5-.6l-4.3-.8c-8.6-.1-16-4.7-20.3-11.5,3.1,5.2,8.1,9.2,14.4,10.9l92.2,24.7,3-8.3-81.6-14.4Z"/>
    <path class="st63" d="M-4034.7-6313l66.3,11.7c-1.1-4.8-3.1-9.4-5.9-13.4l-50.3-8.9c-4,2.7-7.5,6.3-10.1,10.5Z"/>
    <path class="st5" d="M-4034.7-6313l66.3,11.7c-1.1-4.8-3.1-9.4-5.9-13.4l-50.3-8.9c-4,2.7-7.5,6.3-10.1,10.5Z"/>
    <path class="st12" d="M-4034.7-6313l66.3,11.7c-1.1-4.8-3.1-9.4-5.9-13.4l-50.3-8.9c-4,2.7-7.5,6.3-10.1,10.5Z"/>
    <path class="st71" d="M-3974.3-6314.7c2.8,4,4.9,8.6,5.9,13.4l29.9,5.3,4.2-11.6-40-7.1Z"/>
    <path class="st5" d="M-3974.3-6314.7c2.8,4,4.9,8.6,5.9,13.4l29.9,5.3,4.2-11.6-40-7.1Z"/>
    <path class="st8" d="M-3974.3-6314.7c2.8,4,4.9,8.6,5.9,13.4l29.9,5.3,4.2-11.6-40-7.1Z"/>
    <path class="st71" d="M-4128.2-6341.8l-533.6-94.1-3,8.3,37.4,10,496,87.5c.3-3.1.9-6.1,2-9.1.3-.9.7-1.8,1.1-2.6Z"/>
    <path class="st5" d="M-4128.2-6341.8l-533.6-94.1-3,8.3,37.4,10,496,87.5c.3-3.1.9-6.1,2-9.1.3-.9.7-1.8,1.1-2.6Z"/>
    <path class="st10" d="M-4128.2-6341.8l-533.6-94.1-3,8.3,37.4,10,496,87.5c.3-3.1.9-6.1,2-9.1.3-.9.7-1.8,1.1-2.6Z"/>
    <path class="st71" d="M-4024.6-6323.5l-34.3-6c.3,4,0,8.1-1.1,12.1l25.2,4.4c2.7-4.2,6.1-7.8,10.1-10.5Z"/>
    <path class="st5" d="M-4024.6-6323.5l-34.3-6c.3,4,0,8.1-1.1,12.1l25.2,4.4c2.7-4.2,6.1-7.8,10.1-10.5Z"/>
    <path class="st11" d="M-4024.6-6323.5l-34.3-6c.3,4,0,8.1-1.1,12.1l25.2,4.4c2.7-4.2,6.1-7.8,10.1-10.5Z"/>
    <path class="st63" d="M-3767.3-6607.4l23.7-134.4c2.3-13.2-6.5-25.8-19.7-28.1l-17.5-3.1v160.6l13.5,4.9Z"/>
    <rect class="st63" x="-3774.1" y="-6617.1" width="0" height="14.3" transform="translate(3728 -7895.5) rotate(-70)"/>
    <polygon class="st63" points="-3780.8 -6612.3 -3767.3 -6607.4 -3767.3 -6607.4 -3780.8 -6612.3 -3780.8 -6612.3"/>
    <path class="st63" d="M-4128.2-6341.8s0,0,0,0l69.4,12.2s0,0,0,0l-69.4-12.2Z"/>
    <path class="st63" d="M-4743.1-6450.3h-.2s0,0,0,0l81.6,14.4h0s-81.4-14.4-81.4-14.4Z"/>
    <path class="st63" d="M-4751-6451.6s0,0-.1,0l4.3.8c-.1,0-.3,0-.4,0l-3.7-.7Z"/>
    <path class="st63" d="M-4024.5-6323.6s0,0,0,0l50.3,8.9s0,0,0,0l-50.2-8.9Z"/>
    <polygon class="st63" points="-3780.8 -6531 -3767.3 -6607.4 -3780.8 -6612.3 -3780.8 -6531"/>
    <path class="st63" d="M-3829.3-6427.4h-61.4l-43.6,119.8,86.8,15.3c13.2,2.3,25.8-6.5,28.1-19.6l26.3-149.2-3.7,21c-8.6,7.9-19.9,12.8-32.5,12.8Z"/>
    <polygon class="st63" points="-4613.4 -6427.4 -4613.5 -6427.4 -4661.7 -6435.9 -4661.7 -6435.9 -4128.2 -6341.8 -4128.2 -6341.8 -4613.4 -6427.4"/>
    <path class="st63" d="M-3922.2-6427.4l-20.8,118.2-31.3-5.5s0,0,0,0l40,7.1,43.6-119.8h-31.4Z"/>
    <path class="st63" d="M-3990.1-6391.3c19.8,3.5,38.7-9.7,42.1-29.5.4-2.2.6-4.4.5-6.5h-72.7c-.1,17.4,12.3,32.9,30.1,36.1Z"/>
    <path class="st63" d="M-4058.8-6329.6l34.3,6s0,0,0,0l-34.3-6s0,0,0,0Z"/>
    <path class="st63" d="M-4085.6-6408.2c16.1,2.8,31.6-5.4,38.7-19.2h-64.7c5,9.8,14.4,17.2,26.1,19.2Z"/>
    <path class="st62" d="M-4082.6-6361c-18-6.5-37.8,2-45.5,19.1l69.4,12.2c-1.1-13.8-10-26.3-23.8-31.4Z"/>
    <path class="st62" d="M-3991.5-6327.8c-11.5-4.2-23.7-2.2-33.1,4.2l50.2,8.9c-4.1-5.8-10-10.5-17.2-13.1Z"/>
    <path class="st62" d="M-4392.3-6396.3c59.9,21.8,124.1,7.8,169.1-31.1h-222.2c15.2,13.2,33,23.8,53.1,31.1Z"/>
    <path class="st62" d="M-3947.9-6420.8c-3.5,19.8-22.4,33-42.1,29.5-17.7-3.1-30.2-18.6-30.1-36.1h-26.8c-7.1,13.8-22.6,22.1-38.7,19.2-11.7-2.1-21-9.5-26.1-19.2h-111.6c-45,38.9-109.2,52.9-169.1,31.1-20-7.3-37.8-18-53.1-31.1h-168.1l485.3,85.6c7.8-17.1,27.6-25.7,45.5-19.1,13.8,5,22.7,17.6,23.8,31.4l34.3,6c9.4-6.4,21.6-8.4,33.1-4.2,7.2,2.6,13.1,7.3,17.2,13.1l31.3,5.5,20.8-118.2h-25.2c0,2.2-.2,4.3-.5,6.5Z"/>
    <polygon class="st5" points="-3780.8 -6773 -3780.8 -6773 -3792.9 -6775.1 -3792.9 -6775.1 -3780.8 -6773"/>
    <path class="st5" d="M-4774.9-6475.9v-.9c0,.4,0,.8,0,1.2,0,0,0-.1,0-.2,0,0,0,0,0-.1Z"/>
    <path class="st63" d="M-4774.9-6475.3c0-.2,0-.3,0-.5,0,0,0,.1,0,.2,0,.1,0,.3,0,.4,0,0,0,0,0,0Z"/>
    <path class="st5" d="M-4774.9-6475.3c0-.2,0-.3,0-.5,0,0,0,.1,0,.2,0,.1,0,.3,0,.4,0,0,0,0,0,0Z"/>
    <path class="st63" d="M-4774.9-6475.3s0,0,0,0c0,0,0,0,0,0,0,0,0,0,0-.1Z"/>
    <path class="st5" d="M-4774.9-6475.3s0,0,0,0c0,0,0,0,0,0,0,0,0,0,0-.1Z"/>
    <path class="st5" d="M-4774.9-6475.3s0,0,0,0c0,0,0,0,0,0,0,0,0,0,0-.1Z"/>
    <polygon class="st63" points="-3780.8 -6530.9 -3780.8 -6531 -3793.1 -6461.1 -3780.8 -6530.9"/>
    <polygon class="st5" points="-3780.8 -6530.9 -3780.8 -6531 -3793.1 -6461.1 -3780.8 -6530.9"/>
    <polygon class="st7" points="-3780.8 -6530.9 -3780.8 -6531 -3793.1 -6461.1 -3780.8 -6530.9"/>
    <polygon class="st5" points="-3780.8 -6530.9 -3780.8 -6531 -3793.1 -6461.1 -3780.8 -6530.9"/>
    <polygon class="st63" points="-3792.9 -6616.7 -3780.8 -6612.3 -3780.8 -6773 -3792.9 -6775.1 -3792.9 -6616.7"/>
    <polygon class="st5" points="-3792.9 -6616.7 -3780.8 -6612.3 -3780.8 -6773 -3792.9 -6775.1 -3792.9 -6616.7"/>
    <rect class="st63" x="-3793.3" y="-6614.5" width="12.9" height="0"/>
    <rect class="st5" x="-3793.3" y="-6614.5" width="12.9" height="0"/>
    <polygon class="st63" points="-3792.9 -6616.7 -3780.8 -6612.3 -3780.8 -6612.3 -3792.9 -6616.7 -3792.9 -6616.7"/>
    <polygon class="st5" points="-3792.9 -6616.7 -3780.8 -6612.3 -3780.8 -6612.3 -3792.9 -6616.7 -3792.9 -6616.7"/>
    <polygon class="st63" points="-4743.1 -6450.3 -4661.7 -6435.9 -4659.2 -6442.8 -4743.1 -6450.3"/>
    <polygon class="st5" points="-4743.1 -6450.3 -4661.7 -6435.9 -4659.2 -6442.8 -4743.1 -6450.3"/>
    <path class="st63" d="M-4748.1-6451.2c-.4,0-1.1-.3-2-.5h-.6c0,0-.2,0-.3,0l3.7.7c-.3,0-.6-.1-.8-.2Z"/>
    <path class="st5" d="M-4748.1-6451.2c-.4,0-1.1-.3-2-.5h-.6c0,0-.2,0-.3,0l3.7.7c-.3,0-.6-.1-.8-.2Z"/>
    <path class="st63" d="M-3792.9-6531.2l-4.8,54.7c0,6.7-8.7,30.6-15.4,30.6-4.3,3.9-27,6.4-33.2,6.4h-40l-4.4,12.1h61.4c12.5,0,23.9-4.9,32.5-12.8l3.7-21,12.3-69.9v-81.3l-12.1-4.4v85.5Z"/>
    <path class="st5" d="M-3792.9-6531.2l-4.8,54.7c0,6.7-8.7,30.6-15.4,30.6-4.3,3.9-27,6.4-33.2,6.4h-40l-4.4,12.1h61.4c12.5,0,23.9-4.9,32.5-12.8l3.7-21,12.3-69.9v-81.3l-12.1-4.4v85.5Z"/>
    <polygon class="st63" points="-4658.1 -6442.7 -4659.2 -6442.8 -4661.7 -6435.9 -4613.5 -6427.4 -4613.4 -6427.4 -4659.4 -6435.5 -4658.1 -6442.7"/>
    <polygon class="st5" points="-4658.1 -6442.7 -4659.2 -6442.8 -4661.7 -6435.9 -4613.5 -6427.4 -4613.4 -6427.4 -4659.4 -6435.5 -4658.1 -6442.7"/>
    <path class="st63" d="M-4019.6-6433.5c-.4,2-.5,4.1-.5,6.1h72.7c0-4.2-.8-8.3-2.2-12.1h-68.4c-.7,1.9-1.2,3.9-1.6,6Z"/>
    <path class="st5" d="M-4019.6-6433.5c-.4,2-.5,4.1-.5,6.1h72.7c0-4.2-.8-8.3-2.2-12.1h-68.4c-.7,1.9-1.2,3.9-1.6,6Z"/>
    <polygon class="st63" points="-3922.2 -6427.4 -3890.7 -6427.4 -3886.3 -6439.5 -3920 -6439.5 -3922.2 -6427.4"/>
    <polygon class="st5" points="-3922.2 -6427.4 -3890.7 -6427.4 -3886.3 -6439.5 -3920 -6439.5 -3922.2 -6427.4"/>
    <path class="st63" d="M-4043.2-6439.5h-72.2c.5,4.3,1.8,8.4,3.7,12.1h64.7c1.6-3.2,2.8-6.6,3.4-10.3.1-.6.2-1.2.3-1.8Z"/>
    <path class="st5" d="M-4043.2-6439.5h-72.2c.5,4.3,1.8,8.4,3.7,12.1h64.7c1.6-3.2,2.8-6.6,3.4-10.3.1-.6.2-1.2.3-1.8Z"/>
    <path class="st62" d="M-4210.5-6439.5h-247.5c4,4.2,8.2,8.3,12.6,12.1h222.2c4.4-3.8,8.6-7.9,12.7-12.1Z"/>
    <path class="st5" d="M-4210.5-6439.5h-247.5c4,4.2,8.2,8.3,12.6,12.1h222.2c4.4-3.8,8.6-7.9,12.7-12.1Z"/>
    <path class="st62" d="M-4019.6-6433.5c.4-2.1.9-4.1,1.6-6h-25.2c0,.6-.2,1.2-.3,1.8-.6,3.7-1.8,7.1-3.4,10.3h26.8c0-2,.2-4,.5-6.1Z"/>
    <path class="st5" d="M-4019.6-6433.5c.4-2.1.9-4.1,1.6-6h-25.2c0,.6-.2,1.2-.3,1.8-.6,3.7-1.8,7.1-3.4,10.3h26.8c0-2,.2-4,.5-6.1Z"/>
    <path class="st62" d="M-3949.6-6439.5c1.4,3.8,2.1,7.9,2.2,12.1h25.2l2.1-12.1h-29.5Z"/>
    <path class="st5" d="M-3949.6-6439.5c1.4,3.8,2.1,7.9,2.2,12.1h25.2l2.1-12.1h-29.5Z"/>
    <path class="st62" d="M-4210.5-6439.5c-4,4.3-8.2,8.3-12.7,12.1h111.6c-1.9-3.7-3.2-7.8-3.7-12.1h-95.2Z"/>
    <path class="st5" d="M-4210.5-6439.5c-4,4.3-8.2,8.3-12.7,12.1h111.6c-1.9-3.7-3.2-7.8-3.7-12.1h-95.2Z"/>
    <path class="st62" d="M-4458-6439.5h-163.5l-36.6-3.2-1.3,7.3,45.9,8.1h168.1c-4.4-3.8-8.6-7.9-12.6-12.1Z"/>
    <path class="st5" d="M-4458-6439.5h-163.5l-36.6-3.2-1.3,7.3,45.9,8.1h168.1c-4.4-3.8-8.6-7.9-12.6-12.1Z"/>
    <rect class="st13" x="-3805.1" y="-6776.2" width="12.3" height="0"/>
    <path class="st63" d="M-4743.3-6450.3l-3.5-.6c1.2.3,2.9.6,3.5.6Z"/>
    <path class="st5" d="M-4743.3-6450.3l-3.5-.6c1.2.3,2.9.6,3.5.6Z"/>
    <path class="st14" d="M-4743.3-6450.3l-3.5-.6c1.2.3,2.9.6,3.5.6Z"/>
    <path class="st15" d="M-4743.3-6450.3l-3.5-.6c1.2.3,2.9.6,3.5.6Z"/>
    <path class="st63" d="M-4743.1-6450.3l-4.1-.7c.1,0,.3,0,.4,0l3.5.6s0,0,0,0h.2Z"/>
    <path class="st22" d="M-4743.1-6450.3l-4.1-.7c.1,0,.3,0,.4,0l3.5.6s0,0,0,0h.2Z"/>
    <polygon class="st5" points="-3805 -6777.2 -3792.9 -6775.1 -3792.9 -6775.1 -3805 -6777.3 -3805 -6777.2"/>
    <polygon class="st20" points="-3805 -6777.2 -3792.9 -6775.1 -3792.9 -6775.1 -3805 -6777.3 -3805 -6777.2"/>
    <polygon class="st63" points="-3792.9 -6616.7 -3792.9 -6775.1 -3805 -6777.2 -3805 -6621.2 -3792.9 -6616.7"/>
    <polygon class="st5" points="-3792.9 -6616.7 -3792.9 -6775.1 -3805 -6777.2 -3805 -6621.2 -3792.9 -6616.7"/>
    <polygon class="st16" points="-3792.9 -6616.7 -3792.9 -6775.1 -3805 -6777.2 -3805 -6621.2 -3792.9 -6616.7"/>
    <rect class="st63" x="-3799" y="-6625.4" width="0" height="12.9" transform="translate(3720.2 -7924.8) rotate(-70)"/>
    <rect class="st5" x="-3799" y="-6625.4" width="0" height="12.9" transform="translate(3720.2 -7924.8) rotate(-70)"/>
    <rect class="st19" x="-3799" y="-6625.4" width="0" height="12.9" transform="translate(3720.2 -7924.8) rotate(-70)"/>
    <polygon class="st63" points="-3792.9 -6616.7 -3792.9 -6616.7 -3805 -6621.2 -3805 -6621.1 -3792.9 -6616.7"/>
    <polygon class="st5" points="-3792.9 -6616.7 -3792.9 -6616.7 -3805 -6621.2 -3805 -6621.1 -3792.9 -6616.7"/>
    <polygon class="st17" points="-3792.9 -6616.7 -3792.9 -6616.7 -3805 -6621.2 -3805 -6621.1 -3792.9 -6616.7"/>
    <path class="st63" d="M-3805-6475.9c0,13.4-10.9,24.2-24.2,24.2h-52.6l-4.4,12.1h40c6.3,0,28.9-2.4,33.2-6.4,6.7,0,15.4-23.9,15.4-30.6l4.8-54.7v-85.5l-12.1-4.4v145.3Z"/>
    <path class="st5" d="M-3805-6475.9c0,13.4-10.9,24.2-24.2,24.2h-52.6l-4.4,12.1h40c6.3,0,28.9-2.4,33.2-6.4,6.7,0,15.4-23.9,15.4-30.6l4.8-54.7v-85.5l-12.1-4.4v145.3Z"/>
    <path class="st25" d="M-3805-6475.9c0,13.4-10.9,24.2-24.2,24.2h-52.6l-4.4,12.1h40c6.3,0,28.9-2.4,33.2-6.4,6.7,0,15.4-23.9,15.4-30.6l4.8-54.7v-85.5l-12.1-4.4v145.3Z"/>
    <path class="st63" d="M-4747.3-6451l4.1.7,83.9,7.4,2.2-6,.5-2.8h-93.5c.9.2,1.6.4,2,.5.2,0,.5.1.8.2Z"/>
    <path class="st5" d="M-4747.3-6451l4.1.7,83.9,7.4,2.2-6,.5-2.8h-93.5c.9.2,1.6.4,2,.5.2,0,.5.1.8.2Z"/>
    <path class="st26" d="M-4747.3-6451l4.1.7,83.9,7.4,2.2-6,.5-2.8h-93.5c.9.2,1.6.4,2,.5.2,0,.5.1.8.2Z"/>
    <polygon class="st63" points="-4657 -6448.8 -4659.2 -6442.8 -4658.1 -6442.7 -4657 -6448.8"/>
    <polygon class="st5" points="-4657 -6448.8 -4659.2 -6442.8 -4658.1 -6442.7 -4657 -6448.8"/>
    <polygon class="st18" points="-4657 -6448.8 -4659.2 -6442.8 -4658.1 -6442.7 -4657 -6448.8"/>
    <polygon class="st63" points="-3917.9 -6451.6 -3920 -6439.5 -3886.3 -6439.5 -3881.9 -6451.6 -3917.9 -6451.6"/>
    <polygon class="st5" points="-3917.9 -6451.6 -3920 -6439.5 -3886.3 -6439.5 -3881.9 -6451.6 -3917.9 -6451.6"/>
    <polygon class="st21" points="-3917.9 -6451.6 -3920 -6439.5 -3886.3 -6439.5 -3881.9 -6451.6 -3917.9 -6451.6"/>
    <path class="st63" d="M-4010.7-6451.6c-3.2,3.5-5.7,7.6-7.3,12.1h68.4c-1.6-4.5-4.1-8.6-7.3-12.1h-53.8Z"/>
    <path class="st5" d="M-4010.7-6451.6c-3.2,3.5-5.7,7.6-7.3,12.1h68.4c-1.6-4.5-4.1-8.6-7.3-12.1h-53.8Z"/>
    <path class="st31" d="M-4010.7-6451.6c-3.2,3.5-5.7,7.6-7.3,12.1h68.4c-1.6-4.5-4.1-8.6-7.3-12.1h-53.8Z"/>
    <path class="st63" d="M-4043.7-6451.6h-71.1c0,.4-.2.9-.3,1.3-.6,3.7-.7,7.3-.3,10.8h72.2c.5-4.1.3-8.2-.5-12.1Z"/>
    <path class="st5" d="M-4043.7-6451.6h-71.1c0,.4-.2.9-.3,1.3-.6,3.7-.7,7.3-.3,10.8h72.2c.5-4.1.3-8.2-.5-12.1Z"/>
    <path class="st24" d="M-4043.7-6451.6h-71.1c0,.4-.2.9-.3,1.3-.6,3.7-.7,7.3-.3,10.8h72.2c.5-4.1.3-8.2-.5-12.1Z"/>
    <path class="st62" d="M-4468.3-6451.6c3.2,4.2,6.7,8.2,10.3,12.1h247.5c3.6-3.9,7.1-7.9,10.4-12.1h-268.2Z"/>
    <path class="st5" d="M-4468.3-6451.6c3.2,4.2,6.7,8.2,10.3,12.1h247.5c3.6-3.9,7.1-7.9,10.4-12.1h-268.2Z"/>
    <path class="st30" d="M-4468.3-6451.6c3.2,4.2,6.7,8.2,10.3,12.1h247.5c3.6-3.9,7.1-7.9,10.4-12.1h-268.2Z"/>
    <polygon class="st62" points="-4656.5 -6451.6 -4657 -6448.8 -4656 -6451.6 -4656.5 -6451.6"/>
    <polygon class="st5" points="-4656.5 -6451.6 -4657 -6448.8 -4656 -6451.6 -4656.5 -6451.6"/>
    <polygon class="st32" points="-4656.5 -6451.6 -4657 -6448.8 -4656 -6451.6 -4656.5 -6451.6"/>
    <path class="st62" d="M-4043.2-6439.5h25.2c1.6-4.6,4.2-8.7,7.3-12.1h-33c.8,3.9,1.1,8,.5,12.1Z"/>
    <path class="st5" d="M-4043.2-6439.5h25.2c1.6-4.6,4.2-8.7,7.3-12.1h-33c.8,3.9,1.1,8,.5,12.1Z"/>
    <path class="st28" d="M-4043.2-6439.5h25.2c1.6-4.6,4.2-8.7,7.3-12.1h-33c.8,3.9,1.1,8,.5,12.1Z"/>
    <path class="st62" d="M-3956.9-6451.6c3.2,3.5,5.7,7.6,7.3,12.1h29.5l2.1-12.1h-39Z"/>
    <path class="st5" d="M-3956.9-6451.6c3.2,3.5,5.7,7.6,7.3,12.1h29.5l2.1-12.1h-39Z"/>
    <path class="st23" d="M-3956.9-6451.6c3.2,3.5,5.7,7.6,7.3,12.1h29.5l2.1-12.1h-39Z"/>
    <path class="st62" d="M-4621.5-6439.5h163.5c-3.6-3.9-7.1-7.9-10.3-12.1h-187.7l-1,2.8-1.1,6.1,36.6,3.2Z"/>
    <path class="st5" d="M-4621.5-6439.5h163.5c-3.6-3.9-7.1-7.9-10.3-12.1h-187.7l-1,2.8-1.1,6.1,36.6,3.2Z"/>
    <path class="st27" d="M-4621.5-6439.5h163.5c-3.6-3.9-7.1-7.9-10.3-12.1h-187.7l-1,2.8-1.1,6.1,36.6,3.2Z"/>
    <path class="st62" d="M-4115.1-6450.3c0-.4.2-.9.3-1.3h-85.3c-3.3,4.2-6.7,8.3-10.4,12.1h95.2c-.4-3.5-.4-7.1.3-10.8Z"/>
    <path class="st5" d="M-4115.1-6450.3c0-.4.2-.9.3-1.3h-85.3c-3.3,4.2-6.7,8.3-10.4,12.1h95.2c-.4-3.5-.4-7.1.3-10.8Z"/>
    <path class="st29" d="M-4115.1-6450.3c0-.4.2-.9.3-1.3h-85.3c-3.3,4.2-6.7,8.3-10.4,12.1h95.2c-.4-3.5-.4-7.1.3-10.8Z"/>
    <path class="st63" d="M-4698.8-6910.2c2.3-13.2,14.9-22,28.1-19.7l17,3v-9.7h-97c-13.4,0-24.2,10.9-24.2,24.2v435.5c0-1.2.1-2.4.4-3.6l75.8-429.8Z"/>
    <path class="st63" d="M-3858.8-6786.8h0s53.8,9.5,53.8,9.5v-135.1c0-13.4-10.9-24.2-24.2-24.2h-97v137.9l67.5,11.9Z"/>
    <path class="st63" d="M-4774.3-6470.5c-.4-1.5-.6-3.1-.7-4.7.1,4.4,1.4,8.5,3.6,12-1.3-2.2-2.3-4.6-2.9-7.1,0,0,0-.1,0-.2Z"/>
    <path class="st63" d="M-4751.1-6451.6l-3.8-.7c-2.5-.4-4.8-1.2-6.9-2.3-6.3-3.2-10.8-9-12.4-15.8,0,0,0,.1,0,.2.6,2.5,1.6,4.9,2.9,7.1,4.2,6.8,11.7,11.4,20.3,11.5Z"/>
    <path class="st63" d="M-4754.9-6452.3c-2.5-.4-4.8-1.2-6.9-2.3,2.1,1.1,4.5,1.9,6.9,2.3l3.8.7s0,0,.1,0l-3.9-.7Z"/>
    <polygon class="st63" points="-3858.8 -6786.7 -3858.8 -6786.8 -3926.3 -6798.7 -3926.3 -6798.6 -3858.8 -6786.7"/>
    <path class="st63" d="M-4774.9-6475.8c0-.2,0-.4,0-.6,0-1.3.1-2.7.4-4l1.2-6.9c0-.4,0-.7.1-.9l74.4-422-75.8,429.8c-.2,1.2-.3,2.4-.4,3.6v.9s0,0,0,.1Z"/>
    <path class="st63" d="M-4774.9-6476.4c0,.2,0,.4,0,.6,0,.2,0,.3,0,.5,0-.1,0-.2,0-.3,0-.2,0-.5,0-.7Z"/>
    <path class="st63" d="M-4774.3-6470.5c0-.4-.2-.8-.2-1.2-.2-1.3-.4-2.6-.4-4,0,.1,0,.2,0,.3,0,0,0,0,0,.1,0,1.6.3,3.2.7,4.7Z"/>
    <path class="st63" d="M-4761.8-6454.7c-6.6-3.4-11.3-9.7-12.7-17,0,.4.2.8.2,1.2,1.7,6.8,6.2,12.6,12.4,15.8Z"/>
    <path class="st63" d="M-4773.3-6487.3l-1.2,6.9c-.2,1.4-.4,2.7-.4,4,.1-2.1.5-4.1,1.2-6.2.1-1.9.3-3.6.4-4.8Z"/>
    <path class="st63" d="M-4773.8-6482.4s0,0,0,0c-.7,2-1,4.1-1.2,6.2,0,.2,0,.5,0,.7,0-2.3.4-4.6,1.1-6.8Z"/>
    <path class="st63" d="M-4774.7-6476.9c.1-1.8.3-3.6.9-5.4,0,0,0,0,0-.1-.7,2.3-1.1,4.6-1.1,6.8,0,1.3.2,2.7.4,4,0-.1,0-.2,0-.3-.2-1.6-.2-3.3,0-4.9Z"/>
    <path class="st63" d="M-4761.8-6454.7c2.1,1.1,4.4,1.9,6.9,2.3l3.9.7c0,0,.2,0,.3,0h.6c-2-.5-4.6-1.2-5.3-1.6-.3-.2-1-.4-1.2-.6-.9-.7-4.9-2.1-5.6-3-.8-.5-1.5-.9-2.2-1.5-1.6-1.2-2.9-2.5-4.1-4-.8-1-1.5-2.2-2.1-3.3-1.1-2.1-2-4.2-2.4-6.6-.8-1.5-.9-6.1-.6-10.1-.5,1.8-.7,3.6-.9,5.4,0,1.6-.1,3.3,0,4.9,0,.1,0,.2,0,.3,1.4,7.3,6.1,13.6,12.7,17Z"/>
    <rect class="st63" x="-3831.9" y="-6809.3" width="0" height="54.6" transform="translate(3512.4 -9378.1) rotate(-80)"/>
    <polygon class="st63" points="-4653.7 -6926.9 -4670.7 -6929.9 -4653.7 -6926.9 -4653.7 -6926.9"/>
    <rect class="st63" x="-3892.5" y="-6826.9" width="0" height="68.5" transform="translate(3472.9 -9446.6) rotate(-80)"/>
    <polygon class="st63" points="-4653.7 -6926.9 -4670.7 -6929.9 -4653.7 -6926.9 -4653.7 -6926.9"/>
    <polygon class="st63" points="-3805 -6777.2 -3805 -6777.3 -3858.8 -6786.7 -3858.8 -6786.7 -3805 -6777.2"/>
    <path class="st63" d="M-4773.2-6488.2c0,.2,0,.6-.1.9l74.6-422.9-74.4,422Z"/>
    <path class="st63" d="M-4773.5-6483.4l119.8-329.1v-114.5l-17-3c-13.2-2.3-25.8,6.5-28.1,19.7l-74.6,422.9c-.2,1.2-.3,2.9-.4,4.8,0-.3.2-.6.3-.8Z"/>
    <polygon class="st63" points="-3883 -6649.5 -3805 -6621.2 -3805 -6777.2 -3858.8 -6786.7 -3883 -6649.5"/>
    <path class="st63" d="M-4653.7-6812.4h0s-119.8,329-119.8,329c-.1.3-.2.6-.3.8,0,0,0,0,0,0,0-.3.2-.6.3-.9l119.8-329Z"/>
    <rect class="st63" x="-3885.5" y="-6635.3" width="83" height="0"/>
    <polygon class="st63" points="-3883 -6649.5 -3818.4 -6626 -3818.4 -6626 -3805 -6621.1 -3805 -6621.2 -3883 -6649.5 -3883 -6649.5"/>
    <path class="st63" d="M-4773.5-6483.4c-.1.3-.2.6-.3.9,0,0,0,0,0,.1.1-.3.2-.7.3-1Z"/>
    <polygon class="st63" points="-3818.4 -6626 -3818.4 -6626 -3883 -6649.5 -3883 -6649.5 -3818.4 -6626"/>
    <path class="st63" d="M-4217.9-6679.4c-16.3-15.4-35.9-27.7-58.3-35.9-88.1-32.1-185.5,13.4-217.5,101.5-5.2,14.3-8.3,28.8-9.6,43.2,30.4,28.6,71.3,46.2,116.4,46.2,88.8,0,161.6-68.2,169.1-155Z"/>
    <path class="st63" d="M-4653.7-6467.7v-344.8l-119.8,329c-.1.3-.2.7-.3,1-.2,4-.2,8.6.6,10.1.4,2.3,1.4,4.5,2.4,6.6.6,1.2,1.3,2.3,2.1,3.3,1.2,1.5,2.5,2.8,4.1,4,.7.5,1.4,1,2.2,1.5.7.9,4.7,2.3,5.6,3,.2.2.9.4,1.2.6.8.5,3.4,1.2,5.3,1.6h93.5l2.8-16Z"/>
    <path class="st63" d="M-3829.3-6451.6c13.4,0,24.2-10.9,24.2-24.2v-145.3l-13.4-4.9-63.5,174.4h52.6Z"/>
    <path class="st63" d="M-4325.1-6795.1c-92.3-16.3-180.4,45.4-196.6,137.7-4.2,23.7-3.2,47.2,2.1,69.2,5,6.3,10.4,12.2,16.3,17.7,1.3-14.4,4.4-28.9,9.6-43.2,32.1-88.1,129.5-133.5,217.5-101.5,22.4,8.1,42,20.5,58.3,35.9.4-4.9.6-9.8.6-14.7,0-13.7-1.6-26.9-4.7-39.7-24.9-31.2-60.8-53.8-103.2-61.3Z"/>
    <polygon class="st63" points="-3917.9 -6451.6 -3881.9 -6451.6 -3818.4 -6626 -3883 -6649.5 -3917.9 -6451.6"/>
    <polygon class="st63" points="-3926.3 -6798.6 -3858.8 -6786.7 -3858.8 -6786.7 -3926.3 -6798.6 -3926.3 -6798.6"/>
    <polygon class="st63" points="-3883 -6649.5 -3858.8 -6786.7 -3926.3 -6798.6 -3926.3 -6665.3 -3883 -6649.5"/>
    <path class="st63" d="M-4387-6863.8c-20.2,0-39.5,3.5-57.4,10l204.1,74.3c-29.4-50.4-84.1-84.2-146.7-84.2Z"/>
    <polygon class="st63" points="-4240.3 -6779.6 -4240.3 -6779.6 -4444.4 -6853.9 -4444.4 -6853.9 -4240.3 -6779.6"/>
    <rect class="st63" x="-3904.6" y="-6680.4" width="0" height="46.1" transform="translate(3686.7 -8049.6) rotate(-70)"/>
    <rect class="st63" x="-3904.6" y="-6680.4" width="0" height="46.1" transform="translate(3304.1 -9414.5) rotate(-80.5)"/>
    <polygon class="st63" points="-4240.3 -6779.6 -4240.3 -6779.6 -4444.4 -6853.9 -4444.4 -6853.9 -4240.3 -6779.6"/>
    <polygon class="st63" points="-3926.3 -6665.3 -3883 -6649.5 -3883 -6649.5 -3926.3 -6665.3 -3926.3 -6665.3"/>
    <polygon class="st63" points="-4444.4 -6853.9 -4240.3 -6779.6 -4240.3 -6779.6 -4444.4 -6853.9 -4444.4 -6853.9"/>
    <polygon class="st63" points="-4653.7 -6458 -4653.7 -6467.7 -4656.5 -6451.6 -4656 -6451.6 -4653.7 -6458"/>
    <path class="st63" d="M-4556.7-6694.1c0,40,13.9,76.8,37.1,105.9-5.3-22-6.3-45.5-2.1-69.2,16.3-92.3,104.3-153.9,196.6-137.7,42.4,7.5,78.3,30.1,103.2,61.3-3.9-16.3-10.2-31.7-18.4-45.8l-204.1-74.3c-65.5,23.5-112.3,86.2-112.3,159.8Z"/>
    <path class="st63" d="M-4083.9-6524.4c20.1,0,36.4-16.3,36.4-36.4s-16.3-36.4-36.4-36.4-36.4,16.3-36.4,36.4,16.3,36.4,36.4,36.4Z"/>
    <polygon class="st63" points="-4656 -6451.6 -4653.7 -6451.6 -4653.7 -6458 -4656 -6451.6"/>
    <path class="st63" d="M-3986.9-6524.4c20.1,0,36.4-16.3,36.4-36.4s-16.3-36.4-36.4-36.4-36.4,16.3-36.4,36.4,16.3,36.4,36.4,36.4Z"/>
    <polygon class="st63" points="-3926.3 -6665.3 -3926.3 -6451.6 -3917.9 -6451.6 -3883 -6649.5 -3926.3 -6665.3"/>
    <polygon class="st64" points="-4575.2 -6913 -4575.2 -6913.1 -3926.3 -6798.7 -3926.3 -6936.6 -4653.7 -6936.6 -4653.7 -6926.9 -4575.2 -6913"/>
    <polygon class="st64" points="-3926.3 -6798.7 -4575.2 -6913.1 -4575.2 -6913 -3926.3 -6798.6 -3926.3 -6798.7"/>
    <rect class="st64" x="-4614.4" y="-6959.8" height="79.7"/>
    <rect class="st64" x="-4250.7" y="-7185.3" height="658.9"/>
    <rect class="st64" x="-4614.4" y="-6959.8" width="0" height="79.7" transform="translate(3001.6 -10262.8) rotate(-80)"/>
    <path class="st64" d="M-4593.1-6908l16,5.8,1.9-10.9-78.5-13.8v114.5l29.5-81.1c4.6-12.6,18.5-19.1,31.1-14.5Z"/>
    <polygon class="st64" points="-4624.2 -6893.5 -4653.7 -6812.4 -4653.7 -6812.4 -4624.2 -6893.5"/>
    <polygon class="st64" points="-4577.1 -6902.2 -4593.1 -6908 -4577.1 -6902.2 -4577.1 -6902.2"/>
    <polygon class="st64" points="-4577.1 -6902.2 -4593.1 -6908 -4577.1 -6902.2 -4577.1 -6902.2"/>
    <path class="st64" d="M-4577.1-6902.2l-16-5.8c-12.6-4.6-26.5,1.9-31.1,14.5l-29.5,81.1v344.8l76.6-434.5Z"/>
    <path class="st64" d="M-4217.9-6679.4c-7.5,86.8-80.3,155-169.1,155s-86-17.6-116.4-46.2c-.7,7.9-.8,15.7-.4,23.5,23.8,43.9,66.7,76.9,119.8,86.3,92.3,16.3,180.4-45.4,196.6-137.7,2.3-12.9,3-25.7,2.4-38.2-8.5-15.8-19.6-30.2-32.8-42.7Z"/>
    <path class="st64" d="M-4073-6479.8c-19.3-3.4-37.8,9.1-41.9,28.2h71.1c-3-14-14.2-25.5-29.3-28.2Z"/>
    <path class="st64" d="M-4217.9-6679.4c13.2,12.5,24.3,26.9,32.8,42.7-1.8-36-15.1-69.9-36.9-97.1,3,12.7,4.7,26,4.7,39.7s-.2,9.9-.6,14.7Z"/>
    <path class="st64" d="M-3977.4-6463c-12.7-2.2-25.1,2.4-33.2,11.3h53.8c-5.2-5.8-12.3-9.9-20.6-11.3Z"/>
    <path class="st64" d="M-4503.4-6570.6c-5.8-5.5-11.3-11.4-16.3-17.7,3.5,14.4,8.8,28.3,15.8,41.1-.4-7.8-.3-15.6.4-23.5Z"/>
    <polygon class="st64" points="-3926.3 -6798.6 -3926.3 -6798.6 -4575.2 -6913 -4575.2 -6913 -3926.3 -6798.6"/>
    <path class="st64" d="M-4577.1-6902.2l132.7,48.3c17.9-6.4,37.3-10,57.4-10,62.6,0,117.2,33.9,146.7,84.2l314,114.3v-133.3l-648.9-114.4-1.9,10.9Z"/>
    <polygon class="st64" points="-3926.3 -6665.3 -3926.3 -6665.3 -4240.3 -6779.6 -4240.3 -6779.6 -3926.3 -6665.3"/>
    <polygon class="st64" points="-4444.4 -6853.9 -4444.4 -6853.9 -4577.1 -6902.2 -4577.1 -6902.2 -4444.4 -6853.9"/>
    <polygon class="st64" points="-4444.4 -6853.9 -4444.4 -6853.9 -4577.1 -6902.2 -4577.1 -6902.2 -4446.6 -6854.7 -4444.4 -6853.9"/>
    <polygon class="st64" points="-4240.3 -6779.6 -3926.3 -6665.3 -3926.3 -6665.3 -4240.3 -6779.6 -4240.3 -6779.6"/>
    <polygon class="st64" points="-4444.4 -6853.9 -4446.6 -6854.7 -4444.4 -6853.9 -4444.4 -6853.9"/>
    <polygon class="st64" points="-3926.3 -6665.3 -3926.3 -6665.3 -4240.3 -6779.6 -4240.3 -6779.6 -3926.3 -6665.3"/>
    <path class="st64" d="M-4174.8-6497.7c17.3-47.5,12-97.7-10.3-138.9.6,12.5-.1,25.3-2.4,38.2-16.3,92.3-104.3,153.9-196.6,137.7-53-9.3-95.9-42.4-119.8-86.3,1.8,34.8,14.3,68.2,35.5,95.5h268.2c10.6-13.6,19.2-29,25.4-46.1Z"/>
    <polygon class="st64" points="-4502 -6874.8 -4446.6 -6854.7 -4577.1 -6902.2 -4653.7 -6467.7 -4653.7 -6458 -4502 -6874.8"/>
    <path class="st64" d="M-4519.6-6588.2c-23.2-29-37.1-65.8-37.1-105.9,0-73.6,46.8-136.2,112.3-159.8l-2.2-.8-55.4-20.2-151.7,416.9v6.3h185.4c-21.1-27.3-33.7-60.6-35.5-95.5-7-12.9-12.3-26.7-15.8-41.1Z"/>
    <path class="st64" d="M-4221.9-6733.8c21.7,27.3,35,61.1,36.9,97.1,22.3,41.2,27.6,91.4,10.3,138.9-6.2,17-14.9,32.5-25.4,46.1h85.3c4.1-19,22.5-31.6,41.9-28.2,15,2.6,26.2,14.1,29.3,28.2h33c8.1-8.9,20.5-13.6,33.2-11.3,8.3,1.5,15.4,5.6,20.6,11.3h30.6v-213.6l-314-114.3c8.2,14.1,14.5,29.5,18.4,45.8ZM-3986.9-6597.1c20.1,0,36.4,16.3,36.4,36.4s-16.3,36.4-36.4,36.4-36.4-16.3-36.4-36.4,16.3-36.4,36.4-36.4ZM-4083.9-6597.1c20.1,0,36.4,16.3,36.4,36.4s-16.3,36.4-36.4,36.4-36.4-16.3-36.4-36.4,16.3-36.4,36.4-36.4Z"/>
  </g>
  <path class="st63" d="M-914.7-6770.2v568.6c0,25.1-20.4,45.5-45.5,45.5h-591.4c-25.1,0-45.5-20.4-45.5-45.5v-773.3c0-25.1,20.4-45.5,45.5-45.5h386.7l250.2,250.2Z"/>
  <path class="st62" d="M-1164.9-7020.4v204.7c0,25.1,20.4,45.5,45.5,45.5h204.7l-250.2-250.2Z"/>
  <path class="st3" d="M-1136.8-6541.1c-23.4-41.7-67.9-69.9-119.1-69.9s-124.1,49.7-134.6,114.7c-39.5,4.7-70.1,37.9-70.1,78.7s35.6,79.6,79.6,79.6h227.4c56.5,0,102.4-45.8,102.4-102.4s-37.1-92.6-85.6-100.7Z"/>
  <path class="st3" d="M-1854.8-5880.4l29.3,29.3c1.9,1.9,1.9,5,0,6.9l-29.3,29.3c-1.9,1.9-5,1.9-6.9,0l-3.9-3.9c-1.9-1.9-1.9-5,0-6.9l20.3-20.3c.9-.9.9-2.3,0-3.2l-20.3-20.3c-1.9-1.9-1.9-5,0-6.9l3.9-3.9c1.9-1.9,5-1.9,6.9,0Z"/>
  <path class="st3" d="M-1715.1-5841.5c0,23-18.7,41.7-41.7,41.7s-41.7-18.7-41.7-41.7,18.7-41.7,41.7-41.7,41.7,18.7,41.7,41.7Z"/>
  <path class="st0" d="M-1756.8-5799.9c12.1,0,22.9-5.2,30.5-13.4-5.2-11.7-16.9-20-30.5-20s-25.4,8.2-30.5,20c7.6,8.2,18.4,13.4,30.5,13.4Z"/>
  <circle class="st0" cx="-1756.8" cy="-5849.9" r="19.8"/>
  <circle class="st57" cx="-1756.8" cy="-5851.9" r="16.7"/>
  <path class="st57" d="M-1756.8-5799.9c10.4,0,20-3.9,27.3-10.2-4.1-11.1-14.8-18.9-27.3-18.9s-23.1,7.9-27.3,18.9c7.3,6.4,16.8,10.2,27.3,10.2Z"/>
  <image width="504" height="62" transform="translate(-2458.4 -1829.2)" xlink:href="Vexa Studio-1.png"/>
  <rect class="st72" x="-7695.9" y="4052" width="1920" height="640.9"/>
  <text class="st56" transform="translate(-7504.7 4413.7)"><tspan x="0" y="0">MERCI D’AVOIR LU!</tspan></text>
  <rect class="st72" x="-7695.9" y="-4177.1" width="1920" height="1082.5"/>
  <text class="st55" transform="translate(-7461 -3600.2)"><tspan x="0" y="0">VEXA STUDIO</tspan></text>
  <text class="st44" transform="translate(-7194.1 -3491.2)"><tspan x="0" y="0">Vexa Studio est un studio de graphisme visant</tspan><tspan x="-116.2" y="56.8" xml:space="preserve"> à fournir à ses clients du contenu graphique peu coûteux.</tspan></text>
  <text class="st35" transform="translate(-7142.9 -3780.5)"><tspan x="0" y="0">Guide de normes graphiques</tspan></text>
  <rect class="st72" x="-7695.9" y="1712.6" width="1920" height="1080"/>
  <rect class="st53" x="-7774.9" y="-2117.9" width="1034.3" height="480.1"/>
  <rect class="st39" x="-6740.6" y="-2117.9" width="999.1" height="480.1"/>
  <rect class="st72" x="-7695.9" y="-2718.3" width="1920" height="608.3"/>
  <path class="st57" d="M-6190.3-1750.2h-91.7l-135.9-255.3h63.8c22.9,0,43.8,13,54,33.5l109.7,221.7Z"/>
  <path class="st57" d="M-6175.1-1781.3l110.8-224.2h-65.1c-22.3,0-42.7,12.3-53.2,31.9l-45.5,85.4,52.9,106.9Z"/>
  <path class="st72" d="M-7174.6-1749.9h-91.7l-135.9-255.3h63.8c22.9,0,43.8,13,54,33.5l109.7,221.7Z"/>
  <path class="st72" d="M-7159.3-1781l110.8-224.2h-65.1c-22.3,0-42.7,12.3-53.2,31.9l-45.5,85.4,52.9,106.9Z"/>
  <path class="st57" d="M-6695.7-2361.3h-84.7l-125.5-235.8h59c21.2,0,40.5,12,49.9,31l101.4,204.9Z"/>
  <rect class="st61" x="-7453.8" y="1944.3" width="701.5" height="450.4" rx="-3025.4" ry="-3025.4"/>
  <rect class="st61" x="-7103" y="2438.1" width="734.7" height="278.8" rx="-2816.8" ry="-2816.8"/>
  <path class="st57" d="M-6681.6-2390l102.4-207.2h-60.1c-20.6,0-39.5,11.3-49.1,29.5l-42,78.9,48.8,98.7Z"/>
  <text class="st41" transform="translate(-6877.6 -2246.9)"><tspan x="0" y="0">Studio</tspan></text>
  <text class="st43" transform="translate(-7291 2040.9)"><tspan x="0" y="0">Antique Olive Nord</tspan></text>
  <text class="st60" transform="translate(-7652.6 -2615.6)"><tspan x="0" y="0">LE LOGO</tspan></text>
  <text class="st59" transform="translate(-7652.6 1823.5)"><tspan x="0" y="0">POLICES</tspan></text>
  <text class="st48" transform="translate(-7244.6 2139.7)"><tspan x="0" y="0">ABCDEFGHIJKLM</tspan><tspan x="-13.7" y="47.8">NOPQRSTUVWZYZ</tspan></text>
  <text class="st48" transform="translate(-7219.9 2264.4)"><tspan x="0" y="0">abcdefghijklm</tspan><tspan x="-7.9" y="47.8">nopqrstuvwzyz</tspan></text>
  <text class="st34" transform="translate(-6789.1 2504.4)"><tspan x="0" y="0">Poppins</tspan></text>
  <text class="st50" transform="translate(-6847.2 2567.4)"><tspan x="0" y="0">ABCDEFGHIJKLM</tspan><tspan x="-9.5" y="30.5">NOPQRSTUVWZYZ</tspan></text>
  <text class="st50" transform="translate(-6833.7 2646.9)"><tspan x="0" y="0">abcdefghijklm</tspan><tspan x="-4.7" y="30.5">nopqrstuvwzyz</tspan></text>
  <rect class="st61" x="-6713.1" y="1944.3" width="706.1" height="450.4" rx="-2650.5" ry="-2650.5"/>
  <text class="st43" transform="translate(-6481.9 2041.6)"><tspan x="0" y="0">CheGuevera</tspan></text>
  <text class="st36" transform="translate(-6531.6 2187.5)"><tspan x="0" y="0">ABCDEFGHIJKLM</tspan><tspan x="-30.1" y="47.8">NOPQRSTUVWZYZ</tspan></text>
  <rect class="st72" x="-7695.9" y="-239" width="1920" height="1080"/>
  <rect class="st61" x="-7268.3" y="-27.1" width="519.3" height="433.2" rx="-3114.9" ry="-3114.9"/>
  <rect class="st61" x="-7268.3" y="437.8" width="1075.8" height="345.1" rx="-2558.4" ry="-2558.4"/>
  <rect class="st61" x="-6711.8" y="-27.1" width="519.3" height="433.2" rx="-2836.6" ry="-2836.6"/>
  <text class="st51" transform="translate(-7087.9 248.2)"><tspan class="st69"><tspan x="0" y="0">Vert Menthe</tspan></tspan><tspan class="st67"><tspan x="4.8" y="38.7">RGB(6, 244, 124)</tspan></tspan><tspan class="st67"><tspan x="-1.8" y="71.7">CMJN(98, 0, 49, 4)</tspan></tspan><tspan class="st67"><tspan x="15.5" y="104.7">HEX: #06F47C</tspan></tspan></text>
  <text class="st51" transform="translate(-6556.9 248.2)"><tspan class="st69"><tspan x="0" y="0">Noir Dynamique</tspan></tspan><tspan class="st67"><tspan x="35.9" y="38.7">RGB(27, 27, 30)</tspan></tspan><tspan class="st67"><tspan x="23.6" y="71.7">CMJN(98, 0, 49, 4)</tspan></tspan><tspan class="st67"><tspan x="41" y="104.7">HEX: #06F47C</tspan></tspan></text>
  <circle class="st52" cx="-7008.7" cy="109.1" r="74.4"/>
  <text class="st51" transform="translate(-6779 659.1)"><tspan class="st68"><tspan x="0" y="0">Blanc Pur</tspan></tspan><tspan class="st66"><tspan x="-21" y="30.8">RGB(255, 255, 255)</tspan></tspan><tspan class="st66"><tspan x="-8.1" y="57.1">CMJN(0, 0, 0, 0)</tspan></tspan><tspan class="st66"><tspan x="-1.6" y="83.4">HEX: #FFFFFF</tspan></tspan></text>
  <circle class="st49" cx="-6731.4" cy="551.5" r="59.3"/>
  <circle class="st54" cx="-6452.2" cy="109.1" r="74.4"/>
  <text class="st59" transform="translate(-7652.6 -134.9)"><tspan x="0" y="0">COULEURS</tspan></text>
  <use transform="translate(-2758.1 1766.9) scale(.7)" xlink:href="#image"/>
  <g class="st74">
    <use transform="translate(848.3 2287.6) scale(.2)" xlink:href="#image"/>
  </g>
  <g>
    <path class="st42" d="M944.8,2422.1h-24l-35.6-66.8h16.7c6,0,11.5,3.4,14.1,8.8l28.7,58Z"/>
    <path class="st42" d="M948.8,2414l29-58.7h-17c-5.8,0-11.2,3.2-13.9,8.4l-11.9,22.4,13.8,28Z"/>
  </g>
  <rect class="st42" x="854.9" y="2308" width="153.3" height="153.3" rx="8" ry="8"/>
  <g class="st65">
    <use transform="translate(759.3 1490.7) scale(.3)" xlink:href="#image"/>
  </g>
  <text class="st40" transform="translate(800.9 1682.1)"><tspan x="0" y="0">INNOVER, UN PIXEL À LA FOIS.</tspan></text>
  <rect class="st37" x="493.3" y="1467.7" width="259.3" height="50.2" rx="25.1" ry="25.1"/>
  <rect class="st45" x="493.3" y="1467.7" width="259.3" height="50.2" rx="25.1" ry="25.1"/>
  <text class="st58" transform="translate(522.3 1447.7)"><tspan x="0" y="0">#StayTuned</tspan></text>
</svg>